<svg width="66" height="66" viewBox="0 0 66 66" fill="none" xmlns="http://www.w3.org/2000/svg">
<path d="M33 5.5C17.8475 5.5 5.5 17.8475 5.5 33C5.5 48.1525 17.8475 60.5 33 60.5C48.1525 60.5 60.5 48.1525 60.5 33C60.5 17.8475 48.1525 5.5 33 5.5ZM44 35.0625H35.0625V44C35.0625 45.1275 34.1275 46.0625 33 46.0625C31.8725 46.0625 30.9375 45.1275 30.9375 44V35.0625H22C20.8725 35.0625 19.9375 34.1275 19.9375 33C19.9375 31.8725 20.8725 30.9375 22 30.9375H30.9375V22C30.9375 20.8725 31.8725 19.9375 33 19.9375C34.1275 19.9375 35.0625 20.8725 35.0625 22V30.9375H44C45.1275 30.9375 46.0625 31.8725 46.0625 33C46.0625 34.1275 45.1275 35.0625 44 35.0625Z" fill="white"/>
</svg>
