<svg width="84" height="84" viewBox="0 0 84 84" fill="none" xmlns="http://www.w3.org/2000/svg">
<path d="M52.6112 23.2222C52.6112 26.5737 51.1844 29.5919 48.9052 31.7026L54.7779 35.848V43.4445H49.0287C49.306 46.9656 51.5652 50.4896 54.4887 53.5634C57.5912 56.8255 61.3239 59.4564 63.8028 60.8729L64.1667 61.0809V72.3333H18.6667V61.0809L19.0306 60.8729C21.5096 59.4564 25.2423 56.8255 28.3448 53.5634C31.2683 50.4896 33.5275 46.9656 33.8048 43.4445H28.0556V35.848L33.525 31.9873C31.0607 29.8681 29.5001 26.7274 29.5001 23.2222C29.5001 16.8403 34.6737 11.6667 41.0556 11.6667C47.4376 11.6667 52.6112 16.8403 52.6112 23.2222Z" fill="#F4F7FA"/>
</svg>
