<svg width="61" height="61" viewBox="0 0 61 61" fill="none" xmlns="http://www.w3.org/2000/svg">
<path d="M22.8749 5.08333C16.2158 5.08333 10.802 10.4971 10.802 17.1562C10.802 23.6883 15.9108 28.975 22.5699 29.2037C22.7733 29.1783 22.9766 29.1783 23.1291 29.2037C23.1799 29.2037 23.2053 29.2037 23.2562 29.2037C23.2816 29.2037 23.2816 29.2037 23.307 29.2037C29.8137 28.975 34.9224 23.6883 34.9478 17.1562C34.9478 10.4971 29.5341 5.08333 22.8749 5.08333Z" fill="white"/>
<path d="M35.7867 35.9646C28.6954 31.2371 17.1309 31.2371 9.98877 35.9646C6.76086 38.125 4.98169 41.0479 4.98169 44.1742C4.98169 47.3004 6.76086 50.1979 9.96336 52.3329C13.5217 54.7221 18.1984 55.9167 22.875 55.9167C27.5517 55.9167 32.2284 54.7221 35.7867 52.3329C38.9892 50.1725 40.7684 47.275 40.7684 44.1233C40.7429 40.9971 38.9892 38.0996 35.7867 35.9646Z" fill="white"/>
<path d="M50.8078 18.6558C51.2145 23.5867 47.707 27.9075 42.8524 28.4921C42.827 28.4921 42.827 28.4921 42.8015 28.4921H42.7253C42.5728 28.4921 42.4203 28.4921 42.2932 28.5429C39.8278 28.67 37.5657 27.8821 35.8628 26.4333C38.4807 24.095 39.9803 20.5875 39.6753 16.775C39.4974 14.7163 38.7857 12.8354 37.7182 11.2342C38.684 10.7513 39.8024 10.4463 40.9461 10.3446C45.9278 9.9125 50.3757 13.6233 50.8078 18.6558Z" fill="white"/>
<path d="M55.8912 42.1662C55.6879 44.6317 54.112 46.7667 51.4687 48.2154C48.927 49.6133 45.7245 50.2742 42.5474 50.1979C44.3774 48.5458 45.4449 46.4871 45.6483 44.3012C45.9024 41.1496 44.4029 38.125 41.4037 35.7104C39.7008 34.3633 37.7183 33.2958 35.5579 32.5079C41.1749 30.8812 48.2408 31.9742 52.587 35.4817C54.9254 37.3625 56.1199 39.7262 55.8912 42.1662Z" fill="white"/>
</svg>
